<svg width="32" height="43" viewBox="0 0 32 43" fill="none" xmlns="http://www.w3.org/2000/svg">
<path d="M16.228 42.744C9.532 42.744 4.24133 40.5533 0.356 36.172L3.394 32.266C6.90733 36.1927 11.2473 38.156 16.414 38.156C19.762 38.156 22.2213 37.4533 23.792 36.048C25.3627 34.6013 26.148 32.9273 26.148 31.026C26.148 29.5793 25.6933 28.36 24.784 27.368C23.8747 26.376 22.6967 25.6113 21.25 25.074C19.8447 24.4953 18.2533 23.9787 16.476 23.524C14.74 23.0693 13.004 22.5733 11.268 22.036C9.532 21.4573 7.94067 20.7753 6.494 19.99C5.08867 19.2047 3.93133 18.0887 3.022 16.642C2.11267 15.1953 1.658 13.48 1.658 11.496C1.658 8.10667 3.00133 5.358 5.688 3.25C8.37467 1.10066 11.764 0.0259972 15.856 0.0259972C22.0147 0.0259972 26.9127 1.948 30.55 5.792L27.45 9.574C24.4327 6.26733 20.444 4.614 15.484 4.614C13.004 4.614 10.958 5.234 9.346 6.474C7.77533 7.67267 6.99 9.24333 6.99 11.186C6.99 12.6327 7.58933 13.8313 8.788 14.782C10.028 15.7327 11.5367 16.4353 13.314 16.89C15.1327 17.3447 17.096 17.9233 19.204 18.626C21.3533 19.2873 23.3167 20.0107 25.094 20.796C26.9127 21.54 28.4213 22.7593 29.62 24.454C30.86 26.1487 31.48 28.1947 31.48 30.592C31.48 33.9813 30.2193 36.854 27.698 39.21C25.218 41.566 21.3947 42.744 16.228 42.744Z" fill="white"/>
</svg>
